<svg id="Layer_1" data-name="Layer 1" xmlns="http://www.w3.org/2000/svg" viewBox="0 0 240 240"><defs><style>.cls-1,.cls-5{fill:#e8e8e8;}.cls-1{stroke:#ffc500;stroke-width:6px;}.cls-1,.cls-2,.cls-5,.cls-6{stroke-miterlimit:10;}.cls-2{fill:#ffc500;}.cls-2,.cls-5,.cls-6{stroke:#262626;}.cls-3{fill:#919191;}.cls-4,.cls-6{fill:#262626;}</style></defs><rect class="cls-1" x="10" y="10" width="220" height="220" rx="43.43"/><path class="cls-2" d="M106.58,42.59l15.09,21.93s2.43.31,6.52-4.48S106.58,42.59,106.58,42.59Z"/><rect class="cls-3" x="59.83" y="31.96" width="14.94" height="1.93" transform="translate(-7.62 32.83) rotate(-26)"/><path class="cls-4" d="M59.86,40.3,14.16,62.59a.17.17,0,0,1-.21,0l-1-1.27a.15.15,0,0,1,0-.11V56.66a.15.15,0,0,1,.09-.15L57.18,34.94a3,3,0,0,1,4,1.39h0A3,3,0,0,1,59.86,40.3Z"/><rect class="cls-3" x="162.12" y="120.9" width="18.18" height="2.35" transform="translate(167.14 -88.16) rotate(53.4)"/><path class="cls-4" d="M160.72,114.83l-37.9-50.68c-.06-.08,1-.19,1-.26l4.8-4.63c.08,0,2.16,3,2.2,3.08l35.71,48.08a3.7,3.7,0,0,1-.76,5.16h0A3.61,3.61,0,0,1,160.72,114.83Z"/><polyline class="cls-2" points="13.38 100.13 108.13 62.85 98.94 44.75 12.86 61.5"/><path class="cls-2" d="M76.36,26,105,40.82a2.63,2.63,0,0,1,1,.9c4.92,7.53,58.27,87.75,58.41,94.55.08,4.23-1.59,6.09-7.08,4.13S88.86,64.25,86.51,61.81c-1.79-1.85-9.8-23-13.27-33.13A2.22,2.22,0,0,1,76.36,26Z"/><circle class="cls-5" cx="98" cy="54" r="4"/><path class="cls-6" d="M153.6,144.71l24-15.93a52.19,52.19,0,0,1,3.55,10.66c.32,1.64,1.75,3.59,6.56-.28,5.8-4.66,13.45-3,17.53.42s16,16.48,2.53,34.29-14.95,20-14.95,20l.65,1.15-13.87,18.44-1.09-10-2-21.31,2.79-1-11.65-27.1-10.15-1.86Z"/></svg>