<svg id="Layer_1" data-name="Layer 1" xmlns="http://www.w3.org/2000/svg" viewBox="0 0 444 134"><defs><style>.cls-1{fill:#f2f2f2;}</style></defs><path class="cls-1" d="M131.4,52.18l-.13,0c-6.43-4-13.06-7.8-20.36-9.71h0a61.27,61.27,0,0,0-10.7-17c-3.66-4-14.15-15.24-18.42-6.05-1.61,3.44-1.47,7.43-1,11.2l.12,1a32.35,32.35,0,0,0-6-5.26c-1.84-1.22-4.63-2.69-6.91-2-1.86.58-3.22,2.59-3.91,4.34-1.39,3.54-.65,7.09-.26,10.75s.81,7.47.93,11.23c-9.19,6-15.85,14.68-13.89,25.85.37,2.19,1.18,4.28,1.45,6.49a6.31,6.31,0,0,1-.09,2.45c-.53,1.89-2.62,3.3-3.71,4.88a13.78,13.78,0,0,0-2.4,5.87,10.13,10.13,0,0,0,.27,3.95,3.76,3.76,0,0,0,1,2.51,5.41,5.41,0,0,0,1.72,1.68A7.8,7.8,0,0,1,51,106a17.13,17.13,0,0,0,2.27,2.81,29,29,0,0,0,6.7,4.6c4.85,2.43,10.36,3.47,15.63,1.79,2.29-.75,4.59-2.09,7-2.24s4.92,1.3,7.13,2.06q7.49,2.55,15.15,4.48c-40.1,24-93.22-5.51-92.91-52.8C12,38.47,33.34,12.16,61.19,7,92,.78,122.68,22.8,131.4,52.18Z"/><path class="cls-1" d="M65.19,81a2.12,2.12,0,0,1-.28,2.1l-1.09,1.4a2.13,2.13,0,0,1-2,.81l-1.76-.24a2.09,2.09,0,0,1-1.67-1.31l-.67-1.64A2.12,2.12,0,0,1,58,80l1.09-1.4a2.15,2.15,0,0,1,2-.81l1.76.24a2.14,2.14,0,0,1,1.68,1.31Z"/><path class="cls-1" d="M51.58,98.73c1.84.31,2.85,1.53,2,3.36-.41.93-1.09,2.3-2.14,2.5a3.48,3.48,0,0,1-2.3-.18,5,5,0,0,1-.85-.74,8,8,0,0,1-1.41-2.2,8.18,8.18,0,0,1-.44-1.26.72.72,0,0,1,.13-.37C47.58,98.37,50,98.4,51.58,98.73Z"/><path class="cls-1" d="M48.27,103.66a5.5,5.5,0,0,0,.85.75,5.35,5.35,0,0,1-1.72-1.69,3.73,3.73,0,0,1-1-2.51,8.18,8.18,0,0,0,.44,1.26A8.29,8.29,0,0,0,48.27,103.66Z"/><path class="cls-1" d="M134.24,105.15a18.06,18.06,0,0,1-5.63-.89,17.14,17.14,0,0,1-6.27-4.41l-5.16-5.16A20,20,0,0,0,110.27,90a25.64,25.64,0,0,0-9.43-1.5H98.62v16H89.16V68l-.72-5.8h31.75a17.23,17.23,0,0,1,7.2,1.22,8.77,8.77,0,0,1,3.87,3.18,11.06,11.06,0,0,1,1.62,4.2,26.46,26.46,0,0,1,.36,4.23v1.36a16.75,16.75,0,0,1-.43,3.51,11.69,11.69,0,0,1-1.65,3.8,10,10,0,0,1-3.48,3.15,13.41,13.41,0,0,1-5.91,1.5,21.86,21.86,0,0,1,2.36,1.55c1,.69,2,1.44,3,2.25s2,1.56,2.83,2.22a22.68,22.68,0,0,0,2,1.44,21.08,21.08,0,0,0,4.58,2.08,16,16,0,0,0,3.3.64l1.5.07-1.43,5.81a15.59,15.59,0,0,1-2.15.46A21.24,21.24,0,0,1,134.24,105.15ZM109.37,81.94c1.82,0,3.44,0,4.87-.11s2.73-.16,3.87-.25c2.11-.24,3.57-.83,4.41-1.76a5.2,5.2,0,0,0,1.26-3.62V74.55a6.19,6.19,0,0,0-1.22-3.87c-.82-1.05-2.27-1.57-4.37-1.57H98.62V81.58c2.1.14,4,.24,5.81.28S107.84,81.94,109.37,81.94Z"/><path class="cls-1" d="M147.78,104.44V62.3h9.46v42.14Z"/><path class="cls-1" d="M214.5,105.15a18,18,0,0,1-5.62-.89,17.24,17.24,0,0,1-6.28-4.41l-5.15-5.16A20.13,20.13,0,0,0,190.53,90a25.62,25.62,0,0,0-9.42-1.5h-2.23v16h-9.46V68l-.71-5.8h31.74a17.31,17.31,0,0,1,7.21,1.22,8.89,8.89,0,0,1,3.87,3.18,11.2,11.2,0,0,1,1.61,4.2,26.46,26.46,0,0,1,.36,4.23v1.36a16.75,16.75,0,0,1-.43,3.51,11.69,11.69,0,0,1-1.65,3.8,9.9,9.9,0,0,1-3.48,3.15,13.41,13.41,0,0,1-5.91,1.5,22.85,22.85,0,0,1,2.37,1.55q1.42,1,3,2.25c1,.82,2,1.56,2.83,2.22a22.68,22.68,0,0,0,2,1.44,21.3,21.3,0,0,0,4.58,2.08,16,16,0,0,0,3.3.64c.86,0,1.36.07,1.51.07l-1.44,5.81a15.25,15.25,0,0,1-2.15.46A21.24,21.24,0,0,1,214.5,105.15ZM189.63,81.94c1.82,0,3.44,0,4.88-.11s2.72-.16,3.87-.25q3.15-.36,4.4-1.76A5.2,5.2,0,0,0,204,76.2V74.55a6.19,6.19,0,0,0-1.22-3.87c-.81-1.05-2.27-1.57-4.37-1.57H178.88V81.58c2.11.14,4,.24,5.81.28S188.1,81.94,189.63,81.94Z"/><path class="cls-1" d="M228,104.44V62.3h44.58v6.88H237.5v9.89h26.81v7.09H237.5v11.4h35.41l2.86,6.09c0,.19-.64.37-1.93.54a61.8,61.8,0,0,1-6.67.25Z"/><path class="cls-1" d="M295.91,104.44V87L275.06,62.3h11.46l10.61,13.4,3.3,4.44h.71l3.3-4.44,10.61-13.4h11.46l-2.79,4.3L305.37,87.24v17.2Z"/><path class="cls-1" d="M333,104.44V62.3h44.58v6.88H342.42v9.89h26.8v7.09h-26.8v11.4h35.4l2.87,6.09c0,.19-.65.37-1.94.54a61.71,61.71,0,0,1-6.66.25Z"/><path class="cls-1" d="M395.88,104.44a43.63,43.63,0,0,1-7.17-.43c-1.52-.29-2.29-.62-2.29-1l2.87-6.23q1.65.28,8.2.54t18,.25h1.36c2.05,0,3.51-.37,4.37-1.11a4.76,4.76,0,0,0,1.29-3.77V91.25a5.05,5.05,0,0,0-1-3.58q-1-1.08-4.62-1.08H400.25q-7.23,0-10.53-2.68t-3.3-8.78V74a14.18,14.18,0,0,1,1.18-5.8,9.2,9.2,0,0,1,4-4.27,16.23,16.23,0,0,1,7.89-1.61H419a50.26,50.26,0,0,1,7.88.5c2,.34,3,.69,3,1.08l-1.43,6c-1.24-.15-4.06-.3-8.46-.47s-10.29-.25-17.7-.25l-.79-.07q-3.3,0-4.44,1.32a5.22,5.22,0,0,0-1.22,3.34V75a4.49,4.49,0,0,0,1.33,3.55c.88.79,2.35,1.18,4.4,1.18h15.91a28.13,28.13,0,0,1,7.82.94,8.73,8.73,0,0,1,4.94,3.4Q432,86.53,432,91.32v1.15a13.07,13.07,0,0,1-2.76,8.67q-2.76,3.3-9.57,3.3Z"/></svg>