<svg id="Layer_1" data-name="Layer 1" xmlns="http://www.w3.org/2000/svg" viewBox="0 0 300 380"><defs><style>.cls-1{fill:#ffc500;}.cls-2{fill:#f7f7f7;}</style></defs><polygon class="cls-1" points="230.37 0 0 0 0 380 300 380 300 63.37 230.37 0"/><path class="cls-2" d="M51.1,83.73V51.93h55.4v146H70.9V83.73Z"/><path class="cls-2" d="M146.2,68.73q13.31-19.8,42.9-19.8T232,68.73q13.31,19.8,13.3,54.2,0,34.8-13.3,54.6t-42.9,19.8q-29.59,0-42.9-19.8t-13.3-54.6Q132.9,88.54,146.2,68.73Zm61.1,23.1q-4.4-10.9-18.2-10.9t-18.2,10.9q-4.4,10.9-4.4,31.1a130.36,130.36,0,0,0,1.6,22.5q1.6,8.9,6.5,14.4t14.5,5.5q9.6,0,14.5-5.5t6.5-14.4a130.36,130.36,0,0,0,1.6-22.5Q211.7,102.73,207.3,91.83Z"/><path class="cls-2" d="M98,265.05H87.63l-1.91,5.27H82.46L91,246.76H94.6l8.53,23.56H99.87Zm-.88-2.51-4.28-12-4.29,12Z"/><path class="cls-2" d="M121.46,253.41a7.94,7.94,0,0,1,2.11,5.93v11h-3.06V259.78a6,6,0,0,0-1.4-4.26A5,5,0,0,0,115.3,254a5.09,5.09,0,0,0-3.89,1.53A6.25,6.25,0,0,0,110,260v10.3h-3.1V251.69H110v2.65a6.14,6.14,0,0,1,2.49-2.21,7.81,7.81,0,0,1,3.49-.78A7.57,7.57,0,0,1,121.46,253.41ZM111.34,247a3.05,3.05,0,0,1,2.26-.92,2.53,2.53,0,0,1,1.11.23,10.64,10.64,0,0,1,1.1.62,5.9,5.9,0,0,0,.85.53,1.74,1.74,0,0,0,.82.19,1.44,1.44,0,0,0,1-.38,1.75,1.75,0,0,0,.51-1.08h1.76a4.26,4.26,0,0,1-1.12,2.61,3.06,3.06,0,0,1-2.28.92,2.73,2.73,0,0,1-1.14-.22,7.4,7.4,0,0,1-1.1-.66q-.54-.35-.87-.51a1.64,1.64,0,0,0-.76-.17,1.34,1.34,0,0,0-1,.37,1.82,1.82,0,0,0-.49,1.12H110.2A4.58,4.58,0,0,1,111.34,247Z"/><path class="cls-2" d="M132,269.44a8.53,8.53,0,0,1-3.33-3.38,10.46,10.46,0,0,1-1.2-5.09,10.08,10.08,0,0,1,1.24-5.05,8.47,8.47,0,0,1,3.38-3.36,10.33,10.33,0,0,1,9.59,0,8.57,8.57,0,0,1,3.38,3.35,10.89,10.89,0,0,1,0,10.15,8.78,8.78,0,0,1-3.46,3.38,9.89,9.89,0,0,1-4.82,1.19A9.6,9.6,0,0,1,132,269.44Zm7.88-2.31a6,6,0,0,0,2.36-2.35,7.51,7.51,0,0,0,.9-3.81,7.77,7.77,0,0,0-.88-3.81,5.75,5.75,0,0,0-2.32-2.32,6.63,6.63,0,0,0-6.2,0,5.56,5.56,0,0,0-2.26,2.32,7.89,7.89,0,0,0-.85,3.81,8,8,0,0,0,.83,3.84,5.53,5.53,0,0,0,2.23,2.33,6.26,6.26,0,0,0,3.06.77A6.57,6.57,0,0,0,139.89,267.13Z"/><path class="cls-2" d="M153.15,269.9a6.51,6.51,0,0,1-2.69-2,5.43,5.43,0,0,1-1.09-3h3.2a3.11,3.11,0,0,0,1.31,2.28A5,5,0,0,0,157,268a4.49,4.49,0,0,0,2.79-.78,2.39,2.39,0,0,0,1-2,1.93,1.93,0,0,0-1.09-1.82,15.07,15.07,0,0,0-3.36-1.18,25.14,25.14,0,0,1-3.39-1.1,5.92,5.92,0,0,1-2.24-1.67,4.33,4.33,0,0,1-.93-2.9,4.42,4.42,0,0,1,.84-2.62,5.9,5.9,0,0,1,2.42-1.89,8.75,8.75,0,0,1,3.57-.7,7.65,7.65,0,0,1,5,1.57,5.62,5.62,0,0,1,2,4.28h-3.1a3.18,3.18,0,0,0-1.17-2.34,4.36,4.36,0,0,0-2.87-.89,4.44,4.44,0,0,0-2.66.72,2.21,2.21,0,0,0-1,1.87,2.07,2.07,0,0,0,.59,1.51,4.38,4.38,0,0,0,1.5.95,23.62,23.62,0,0,0,2.5.8,26.54,26.54,0,0,1,3.26,1.07,5.71,5.71,0,0,1,2.16,1.58,4.29,4.29,0,0,1,.94,2.76,4.76,4.76,0,0,1-.85,2.75,5.64,5.64,0,0,1-2.4,1.92,8.49,8.49,0,0,1-3.55.7A9.74,9.74,0,0,1,153.15,269.9Z"/><path class="cls-2" d="M177.22,255.92a8.42,8.42,0,0,1,3.18-3.35,8.78,8.78,0,0,1,4.53-1.19,8.45,8.45,0,0,1,4,1,7.23,7.23,0,0,1,2.86,2.63v-9.86H195v25.16h-3.12v-3.5a7.36,7.36,0,0,1-2.72,2.74,8.14,8.14,0,0,1-4.22,1.07,8.5,8.5,0,0,1-7.68-4.66,10.69,10.69,0,0,1-1.16-5A10.48,10.48,0,0,1,177.22,255.92ZM191,257.3a6.12,6.12,0,0,0-2.3-2.4,6.29,6.29,0,0,0-3.18-.83,6.21,6.21,0,0,0-3.16.82,5.89,5.89,0,0,0-2.28,2.38,7.62,7.62,0,0,0-.85,3.67,7.8,7.8,0,0,0,.85,3.72,6.06,6.06,0,0,0,2.28,2.42,6.21,6.21,0,0,0,3.16.83,6.29,6.29,0,0,0,3.18-.83,6,6,0,0,0,2.3-2.42,7.73,7.73,0,0,0,.85-3.69A7.65,7.65,0,0,0,191,257.3Z"/><path class="cls-2" d="M217.1,262.16H202.21a5.85,5.85,0,0,0,6,5.85,5.75,5.75,0,0,0,3.35-.93,5,5,0,0,0,1.88-2.5h3.34a8,8,0,0,1-3,4.37,9,9,0,0,1-5.57,1.68,9.43,9.43,0,0,1-4.74-1.19,8.43,8.43,0,0,1-3.29-3.38,11.55,11.55,0,0,1,0-10.15,8.08,8.08,0,0,1,3.25-3.35,9.66,9.66,0,0,1,4.81-1.18,9.35,9.35,0,0,1,4.69,1.16,8,8,0,0,1,3.15,3.18,9.45,9.45,0,0,1,1.1,4.57A17.53,17.53,0,0,1,217.1,262.16Zm-3.88-5.56a5.06,5.06,0,0,0-2.12-1.93,6.56,6.56,0,0,0-3-.67,5.72,5.72,0,0,0-4,1.5,6.11,6.11,0,0,0-1.89,4.15H214A5.74,5.74,0,0,0,213.22,256.6Z"/><path class="cls-2" d="M58.88,289.94v7.92h8.64v2.55H58.88v8.16h9.66v2.55H55.79V287.39H68.54v2.55Z"/><path class="cls-2" d="M83,311.12l-4.42-6.93-4.25,6.93H71.05l6-9.24-6-9.39h3.5l4.42,6.9,4.22-6.9h3.23l-6,9.22,6,9.41Z"/><path class="cls-2" d="M95.35,293.26a8.11,8.11,0,0,1,4.23-1.07,8.65,8.65,0,0,1,4.5,1.19,8.33,8.33,0,0,1,3.18,3.34,10.48,10.48,0,0,1,1.16,5,10.69,10.69,0,0,1-1.16,5,8.46,8.46,0,0,1-7.68,4.66,8.15,8.15,0,0,1-4.2-1.07,7.73,7.73,0,0,1-2.77-2.67V320h-3.1V292.49h3.1v3.43A7.31,7.31,0,0,1,95.35,293.26Zm9.06,4.81a5.87,5.87,0,0,0-2.3-2.38,6.46,6.46,0,0,0-6.32,0,6,6,0,0,0-2.31,2.42,7.44,7.44,0,0,0-.87,3.65,7.51,7.51,0,0,0,.87,3.69,6,6,0,0,0,2.31,2.42,6.22,6.22,0,0,0,3.14.83,6.29,6.29,0,0,0,3.18-.83,6,6,0,0,0,2.3-2.42,7.8,7.8,0,0,0,.85-3.72A7.62,7.62,0,0,0,104.41,298.07Z"/><path class="cls-2" d="M129.4,303H114.5a6.06,6.06,0,0,0,1.89,4.3,6,6,0,0,0,4.17,1.55,5.77,5.77,0,0,0,3.35-.93,5,5,0,0,0,1.88-2.5h3.33a8,8,0,0,1-3,4.37,9,9,0,0,1-5.57,1.68,9.49,9.49,0,0,1-4.75-1.19,8.47,8.47,0,0,1-3.28-3.38,11.55,11.55,0,0,1,0-10.15,8.08,8.08,0,0,1,3.25-3.35,9.65,9.65,0,0,1,4.81-1.17,9.37,9.37,0,0,1,4.69,1.15,7.94,7.94,0,0,1,3.14,3.18,9.34,9.34,0,0,1,1.11,4.57C129.5,301.68,129.46,302.31,129.4,303Zm-3.88-5.56a5.06,5.06,0,0,0-2.12-1.93,6.56,6.56,0,0,0-3-.67,5.7,5.7,0,0,0-4,1.5,6.11,6.11,0,0,0-1.89,4.15H126.3A5.74,5.74,0,0,0,125.52,297.4Z"/><path class="cls-2" d="M139,293a7.2,7.2,0,0,1,3.69-.89v3.2h-.82c-3.46,0-5.2,1.88-5.2,5.64v10.13h-3.09V292.49h3.09v3A5.88,5.88,0,0,1,139,293Z"/><path class="cls-2" d="M146.36,288.85a2,2,0,0,1-.61-1.49,2.08,2.08,0,0,1,2.11-2.11,1.92,1.92,0,0,1,1.44.61,2.07,2.07,0,0,1,.6,1.5,2,2,0,0,1-.6,1.49,1.92,1.92,0,0,1-1.44.61A2,2,0,0,1,146.36,288.85Zm3,3.64v18.63h-3.09V292.49Z"/><path class="cls-2" d="M171.52,303H156.63a5.87,5.87,0,0,0,6.05,5.85,5.73,5.73,0,0,0,3.35-.93,5,5,0,0,0,1.89-2.5h3.33a8.08,8.08,0,0,1-3,4.37,9.06,9.06,0,0,1-5.58,1.68,9.43,9.43,0,0,1-4.74-1.19,8.35,8.35,0,0,1-3.28-3.38,10.46,10.46,0,0,1-1.19-5.09,10.64,10.64,0,0,1,1.15-5.06,8.14,8.14,0,0,1,3.25-3.35,9.68,9.68,0,0,1,4.81-1.17,9.34,9.34,0,0,1,4.69,1.15,8,8,0,0,1,3.15,3.18,9.33,9.33,0,0,1,1.1,4.57A17.53,17.53,0,0,1,171.52,303Zm-3.87-5.56a5.09,5.09,0,0,0-2.13-1.93,6.54,6.54,0,0,0-3-.67,5.73,5.73,0,0,0-4,1.5,6.11,6.11,0,0,0-1.89,4.15h11.77A5.74,5.74,0,0,0,167.65,297.4Z"/><path class="cls-2" d="M190.29,294.21a7.94,7.94,0,0,1,2.11,5.93v11h-3.06V300.58a6,6,0,0,0-1.4-4.26,5,5,0,0,0-3.8-1.48,5.11,5.11,0,0,0-3.9,1.53,6.25,6.25,0,0,0-1.44,4.45v10.3h-3.1V292.49h3.1v2.65a6.1,6.1,0,0,1,2.5-2.21,7.73,7.73,0,0,1,3.48-.78A7.57,7.57,0,0,1,190.29,294.21Z"/><path class="cls-2" d="M197.46,296.72a8.23,8.23,0,0,1,3.22-3.34,10.22,10.22,0,0,1,10.37.47,7.89,7.89,0,0,1,2.94,4.63h-3.33a4.79,4.79,0,0,0-1.86-2.69,5.68,5.68,0,0,0-3.41-1,5.5,5.5,0,0,0-4.29,1.82,7.44,7.44,0,0,0-1.63,5.15A7.58,7.58,0,0,0,201.1,307a5.48,5.48,0,0,0,4.29,1.83,5.83,5.83,0,0,0,3.4-.95,4.87,4.87,0,0,0,1.87-2.72H214a8.22,8.22,0,0,1-3,4.57,9,9,0,0,1-5.61,1.72,9.26,9.26,0,0,1-4.71-1.19,8.24,8.24,0,0,1-3.22-3.37,10.72,10.72,0,0,1-1.15-5.1A10.57,10.57,0,0,1,197.46,296.72Z"/><path class="cls-2" d="M218.2,288.85a2,2,0,0,1-.61-1.49,2.08,2.08,0,0,1,2.11-2.11,1.9,1.9,0,0,1,1.44.61,2.07,2.07,0,0,1,.6,1.5,2,2,0,0,1-.6,1.49,1.9,1.9,0,0,1-1.44.61A2,2,0,0,1,218.2,288.85Zm3,3.64v18.63H218.1V292.49Z"/><path class="cls-2" d="M226.46,296.72a8.33,8.33,0,0,1,3.18-3.34,8.66,8.66,0,0,1,4.51-1.19,8.29,8.29,0,0,1,4.25,1.05,7,7,0,0,1,2.68,2.65v-3.4h3.13v18.63h-3.13v-3.46a7.37,7.37,0,0,1-2.73,2.7,8.27,8.27,0,0,1-4.24,1.07,8.46,8.46,0,0,1-4.48-1.22,8.64,8.64,0,0,1-3.17-3.44,10.69,10.69,0,0,1-1.15-5A10.48,10.48,0,0,1,226.46,296.72Zm13.77,1.38a6,6,0,0,0-2.29-2.4,6.29,6.29,0,0,0-3.18-.83,6.18,6.18,0,0,0-3.16.82,5.89,5.89,0,0,0-2.28,2.38,7.51,7.51,0,0,0-.85,3.67,7.68,7.68,0,0,0,.85,3.72,6.06,6.06,0,0,0,2.28,2.42,6.19,6.19,0,0,0,3.16.83,6.29,6.29,0,0,0,3.18-.83,6,6,0,0,0,2.29-2.42,7.62,7.62,0,0,0,.85-3.69A7.54,7.54,0,0,0,240.23,298.1Z"/></svg>