<svg id="Layer_1" data-name="Layer 1" xmlns="http://www.w3.org/2000/svg" viewBox="0 0 130 130"><defs><style>.cls-1{fill:red;}.cls-2{fill:#fff;}</style></defs><path class="cls-1" d="M126.18,34.22a16.08,16.08,0,0,0-11.33-11.33c-9.94-2.71-49.91-2.71-49.91-2.71S25,20.26,15,23A16.07,16.07,0,0,0,3.7,34.3C.69,52-.47,78.84,3.78,95.78a16,16,0,0,0,11.33,11.33C25,109.82,65,109.82,65,109.82s40,0,49.91-2.71a16.08,16.08,0,0,0,11.33-11.33C129.43,78.11,130.4,51.23,126.18,34.22Z"/><polygon class="cls-2" points="52.21 84.21 85.38 65 52.21 45.79 52.21 84.21"/></svg>