<svg id="Layer_1" data-name="Layer 1" xmlns="http://www.w3.org/2000/svg" viewBox="0 0 130 130"><defs><style>.cls-1{fill:#1877f2;}.cls-2{fill:#fff;}</style></defs><path class="cls-1" d="M129,65a64,64,0,1,0-74,63.22V83.5H38.75V65H55V50.9c0-16,9.55-24.9,24.17-24.9A98.36,98.36,0,0,1,93.5,27.25V43H85.43C77.48,43,75,47.93,75,53V65H92.75L89.91,83.5H75v44.72A64,64,0,0,0,129,65"/><path class="cls-2" d="M89.91,83.5,92.75,65H75V53c0-5.06,2.48-10,10.43-10H93.5V27.25A98.36,98.36,0,0,0,79.17,26C64.55,26,55,34.86,55,50.9V65H38.75V83.5H55v44.72a64.49,64.49,0,0,0,20,0V83.5H89.91"/></svg>