<svg id="Layer_1" data-name="Layer 1" xmlns="http://www.w3.org/2000/svg" xmlns:xlink="http://www.w3.org/1999/xlink" viewBox="0 0 130 130"><defs><style>.cls-1{fill:url(#radial-gradient);}.cls-2{fill:url(#radial-gradient-2);}.cls-3{fill:url(#radial-gradient-3);}.cls-4{fill:url(#radial-gradient-4);}</style><radialGradient id="radial-gradient" cx="-277.46" cy="987.48" r="22.57" gradientTransform="matrix(-3.49, 0.98, -0.71, -2.51, -142.97, 2814.21)" gradientUnits="userSpaceOnUse"><stop offset="0" stop-color="#ff005f"/><stop offset="1" stop-color="#fc01d8"/></radialGradient><radialGradient id="radial-gradient-2" cx="-352.36" cy="195.65" r="22.57" gradientTransform="matrix(0, -4.53, 4.8, 0, -904.4, -1455.58)" gradientUnits="userSpaceOnUse"><stop offset="0" stop-color="#fc0"/><stop offset="0.12" stop-color="#fc0"/><stop offset="0.57" stop-color="#fe4a05"/><stop offset="0.69" stop-color="#ff0f3f"/><stop offset="1" stop-color="#fe0657" stop-opacity="0"/></radialGradient><radialGradient id="radial-gradient-3" cx="-731.99" cy="802.3" r="22.57" gradientTransform="matrix(-3.42, 1.06, -0.48, -1.53, -2102.89, 2013.96)" gradientUnits="userSpaceOnUse"><stop offset="0" stop-color="#780cff"/><stop offset="0.19" stop-color="#780cff"/><stop offset="1" stop-color="#820bff" stop-opacity="0"/></radialGradient><radialGradient id="radial-gradient-4" cx="59" cy="-74.08" r="22.57" gradientTransform="matrix(0.94, -1.62, 2.11, 1.22, 168.88, 313.32)" gradientUnits="userSpaceOnUse"><stop offset="0" stop-color="#fc0"/><stop offset="1" stop-color="#fc0" stop-opacity="0"/></radialGradient></defs><g id="layer1"><g id="g1111"><path id="path1092" class="cls-1" d="M65,1.06c-17.37,0-19.55.07-26.38.39a46.68,46.68,0,0,0-15.53,3,31.4,31.4,0,0,0-11.33,7.37A31.2,31.2,0,0,0,4.36,23.12a46.72,46.72,0,0,0-3,15.52C1.09,45.46,1,47.65,1,65s.09,19.54.39,26.36a47.18,47.18,0,0,0,3,15.52,32.73,32.73,0,0,0,18.72,18.7,46.79,46.79,0,0,0,15.53,3c6.83.3,9,.39,26.38.39s19.56-.07,26.38-.39a46.92,46.92,0,0,0,15.55-3,31.57,31.57,0,0,0,11.33-7.37,31.2,31.2,0,0,0,7.39-11.33,47.77,47.77,0,0,0,3-15.52c.3-6.82.39-9,.39-26.36s-.09-19.54-.39-26.36a47.71,47.71,0,0,0-3-15.52,32.73,32.73,0,0,0-18.72-18.7,46.92,46.92,0,0,0-15.55-3c-6.82-.3-9-.39-26.38-.39ZM59.24,12.6H65c17.09,0,19.12.06,25.86.37a35.61,35.61,0,0,1,11.87,2.2A19.78,19.78,0,0,1,110.06,20a20,20,0,0,1,4.79,7.35,35.22,35.22,0,0,1,2.2,11.88c.31,6.74.38,8.77.38,25.84s-.07,19.09-.38,25.83a35.75,35.75,0,0,1-2.2,11.88,19.61,19.61,0,0,1-4.79,7.34,20,20,0,0,1-7.36,4.78,35.41,35.41,0,0,1-11.87,2.2c-6.74.3-8.77.37-25.86.37s-19.11-.07-25.85-.37a35.61,35.61,0,0,1-11.87-2.2,20,20,0,0,1-7.36-4.78,19.8,19.8,0,0,1-4.79-7.36,35,35,0,0,1-2.21-11.87c-.3-6.74-.37-8.78-.37-25.84s.07-19.1.37-25.84A35.4,35.4,0,0,1,15.1,27.29a19.68,19.68,0,0,1,4.79-7.36,20,20,0,0,1,7.36-4.78A35.41,35.41,0,0,1,39.12,13c5.91-.29,8.21-.37,20.12-.35ZM99.15,23.21a7.68,7.68,0,1,0,7.68,7.68,7.67,7.67,0,0,0-7.68-7.68ZM65,32.17A32.83,32.83,0,1,0,97.84,65,32.84,32.84,0,0,0,65,32.17ZM65,43.7A21.32,21.32,0,1,1,43.66,65,21.32,21.32,0,0,1,65,43.7Z"/><path id="path1068" class="cls-2" d="M65,1.06c-17.37,0-19.55.07-26.38.39a46.68,46.68,0,0,0-15.53,3,31.4,31.4,0,0,0-11.33,7.37A31.2,31.2,0,0,0,4.36,23.12a46.72,46.72,0,0,0-3,15.52C1.09,45.46,1,47.65,1,65s.09,19.54.39,26.36a47.18,47.18,0,0,0,3,15.52,32.73,32.73,0,0,0,18.72,18.7,46.79,46.79,0,0,0,15.53,3c6.83.3,9,.39,26.38.39s19.56-.07,26.38-.39a46.92,46.92,0,0,0,15.55-3,31.57,31.57,0,0,0,11.33-7.37,31.2,31.2,0,0,0,7.39-11.33,47.77,47.77,0,0,0,3-15.52c.3-6.82.39-9,.39-26.36s-.09-19.54-.39-26.36a47.71,47.71,0,0,0-3-15.52,32.73,32.73,0,0,0-18.72-18.7,46.92,46.92,0,0,0-15.55-3c-6.82-.3-9-.39-26.38-.39ZM59.24,12.6H65c17.09,0,19.12.06,25.86.37a35.61,35.61,0,0,1,11.87,2.2A19.78,19.78,0,0,1,110.06,20a20,20,0,0,1,4.79,7.35,35.22,35.22,0,0,1,2.2,11.88c.31,6.74.38,8.77.38,25.84s-.07,19.09-.38,25.83a35.75,35.75,0,0,1-2.2,11.88,19.61,19.61,0,0,1-4.79,7.34,20,20,0,0,1-7.36,4.78,35.41,35.41,0,0,1-11.87,2.2c-6.74.3-8.77.37-25.86.37s-19.11-.07-25.85-.37a35.61,35.61,0,0,1-11.87-2.2,20,20,0,0,1-7.36-4.78,19.8,19.8,0,0,1-4.79-7.36,35,35,0,0,1-2.21-11.87c-.3-6.74-.37-8.78-.37-25.84s.07-19.1.37-25.84A35.4,35.4,0,0,1,15.1,27.29a19.68,19.68,0,0,1,4.79-7.36,20,20,0,0,1,7.36-4.78A35.41,35.41,0,0,1,39.12,13c5.91-.29,8.21-.37,20.12-.35ZM99.15,23.21a7.68,7.68,0,1,0,7.68,7.68,7.67,7.67,0,0,0-7.68-7.68ZM65,32.17A32.83,32.83,0,1,0,97.84,65,32.84,32.84,0,0,0,65,32.17ZM65,43.7A21.32,21.32,0,1,1,43.66,65,21.32,21.32,0,0,1,65,43.7Z"/><path id="path28" class="cls-3" d="M65,1.06c-17.37,0-19.55.07-26.38.39a46.68,46.68,0,0,0-15.53,3,31.4,31.4,0,0,0-11.33,7.37A31.2,31.2,0,0,0,4.36,23.12a46.72,46.72,0,0,0-3,15.52C1.09,45.46,1,47.65,1,65s.09,19.54.39,26.36a47.18,47.18,0,0,0,3,15.52,32.73,32.73,0,0,0,18.72,18.7,46.79,46.79,0,0,0,15.53,3c6.83.3,9,.39,26.38.39s19.56-.07,26.38-.39a46.92,46.92,0,0,0,15.55-3,31.57,31.57,0,0,0,11.33-7.37,31.2,31.2,0,0,0,7.39-11.33,47.77,47.77,0,0,0,3-15.52c.3-6.82.39-9,.39-26.36s-.09-19.54-.39-26.36a47.71,47.71,0,0,0-3-15.52,32.73,32.73,0,0,0-18.72-18.7,46.92,46.92,0,0,0-15.55-3c-6.82-.3-9-.39-26.38-.39ZM59.24,12.6H65c17.09,0,19.12.06,25.86.37a35.61,35.61,0,0,1,11.87,2.2A19.78,19.78,0,0,1,110.06,20a20,20,0,0,1,4.79,7.35,35.22,35.22,0,0,1,2.2,11.88c.31,6.74.38,8.77.38,25.84s-.07,19.09-.38,25.83a35.75,35.75,0,0,1-2.2,11.88,19.61,19.61,0,0,1-4.79,7.34,20,20,0,0,1-7.36,4.78,35.41,35.41,0,0,1-11.87,2.2c-6.74.3-8.77.37-25.86.37s-19.11-.07-25.85-.37a35.61,35.61,0,0,1-11.87-2.2,20,20,0,0,1-7.36-4.78,19.8,19.8,0,0,1-4.79-7.36,35,35,0,0,1-2.21-11.87c-.3-6.74-.37-8.78-.37-25.84s.07-19.1.37-25.84A35.4,35.4,0,0,1,15.1,27.29a19.68,19.68,0,0,1,4.79-7.36,20,20,0,0,1,7.36-4.78A35.41,35.41,0,0,1,39.12,13c5.91-.29,8.21-.37,20.12-.35ZM99.15,23.21a7.68,7.68,0,1,0,7.68,7.68,7.67,7.67,0,0,0-7.68-7.68ZM65,32.17A32.83,32.83,0,1,0,97.84,65,32.84,32.84,0,0,0,65,32.17ZM65,43.7A21.32,21.32,0,1,1,43.66,65,21.32,21.32,0,0,1,65,43.7Z"/><path id="path1165" class="cls-4" d="M65,1.06c-17.37,0-19.55.07-26.38.39a46.68,46.68,0,0,0-15.53,3,31.4,31.4,0,0,0-11.33,7.37A31.2,31.2,0,0,0,4.36,23.12a46.72,46.72,0,0,0-3,15.52C1.09,45.46,1,47.65,1,65s.09,19.54.39,26.36a47.18,47.18,0,0,0,3,15.52,32.73,32.73,0,0,0,18.72,18.7,46.79,46.79,0,0,0,15.53,3c6.83.3,9,.39,26.38.39s19.56-.07,26.38-.39a46.92,46.92,0,0,0,15.55-3,31.57,31.57,0,0,0,11.33-7.37,31.2,31.2,0,0,0,7.39-11.33,47.77,47.77,0,0,0,3-15.52c.3-6.82.39-9,.39-26.36s-.09-19.54-.39-26.36a47.71,47.71,0,0,0-3-15.52,32.73,32.73,0,0,0-18.72-18.7,46.92,46.92,0,0,0-15.55-3c-6.82-.3-9-.39-26.38-.39ZM59.24,12.6H65c17.09,0,19.12.06,25.86.37a35.61,35.61,0,0,1,11.87,2.2A19.78,19.78,0,0,1,110.06,20a20,20,0,0,1,4.79,7.35,35.22,35.22,0,0,1,2.2,11.88c.31,6.74.38,8.77.38,25.84s-.07,19.09-.38,25.83a35.75,35.75,0,0,1-2.2,11.88,19.61,19.61,0,0,1-4.79,7.34,20,20,0,0,1-7.36,4.78,35.41,35.41,0,0,1-11.87,2.2c-6.74.3-8.77.37-25.86.37s-19.11-.07-25.85-.37a35.61,35.61,0,0,1-11.87-2.2,20,20,0,0,1-7.36-4.78,19.8,19.8,0,0,1-4.79-7.36,35,35,0,0,1-2.21-11.87c-.3-6.74-.37-8.78-.37-25.84s.07-19.1.37-25.84A35.4,35.4,0,0,1,15.1,27.29a19.68,19.68,0,0,1,4.79-7.36,20,20,0,0,1,7.36-4.78A35.41,35.41,0,0,1,39.12,13c5.91-.29,8.21-.37,20.12-.35ZM99.15,23.21a7.68,7.68,0,1,0,7.68,7.68,7.67,7.67,0,0,0-7.68-7.68ZM65,32.17A32.83,32.83,0,1,0,97.84,65,32.84,32.84,0,0,0,65,32.17ZM65,43.7A21.32,21.32,0,1,1,43.66,65,21.32,21.32,0,0,1,65,43.7Z"/></g></g></svg>