<svg id="Layer_1" data-name="Layer 1" xmlns="http://www.w3.org/2000/svg" viewBox="0 0 130 130"><defs><style>.cls-1{fill:#ff004f;}.cls-2{fill:#00f2ea;}</style></defs><path class="cls-1" d="M92.31,47.21a50.32,50.32,0,0,0,29.33,9.37v-21a29.62,29.62,0,0,1-6.16-.64V51.46a50.25,50.25,0,0,1-29.33-9.38V85a38.89,38.89,0,0,1-60.54,32.3,38.89,38.89,0,0,0,66.7-27.18V47.21ZM99.91,26a29.38,29.38,0,0,1-7.6-17.16V6.12H86.48A29.48,29.48,0,0,0,99.91,26ZM39.19,100.83A17.8,17.8,0,0,1,58.75,73.11V51.61a38.39,38.39,0,0,0-6.15-.35V68a18,18,0,0,0-5.4-.83,17.79,17.79,0,0,0-8,33.67Z"/><path d="M86.15,42.08a50.25,50.25,0,0,0,29.33,9.38V34.91A29.43,29.43,0,0,1,99.91,26,29.48,29.48,0,0,1,86.48,6.12H71.15v84a17.8,17.8,0,0,1-32,10.71A17.79,17.79,0,0,1,52.6,68V51.26a38.86,38.86,0,0,0-27,66A38.89,38.89,0,0,0,86.15,85V42.08Z"/><path class="cls-2" d="M115.48,34.91V30.43A29.33,29.33,0,0,1,99.91,26,29.43,29.43,0,0,0,115.48,34.91Zm-29-28.79c-.14-.8-.25-1.61-.33-2.41V1H65V85a17.8,17.8,0,0,1-25.8,15.83,17.8,17.8,0,0,0,32-10.71v-84ZM52.6,51.26V46.49a39.7,39.7,0,0,0-5.34-.36A38.87,38.87,0,0,0,25.61,117.3a38.86,38.86,0,0,1,27-66Z"/></svg>